<svg width="207" height="35" viewBox="0 0 207 35" fill="none" xmlns="http://www.w3.org/2000/svg">
<path d="M12.9902 0.474609C16.2598 0.474609 18.7969 1.33594 20.6016 3.05859C22.4062 4.78125 23.4082 6.73828 23.6074 8.92969H20.1973C19.8105 7.26562 19.0371 5.94727 17.877 4.97461C16.7285 4.00195 15.1113 3.51562 13.0254 3.51562C10.4824 3.51562 8.42578 4.41211 6.85547 6.20508C5.29688 7.98633 4.51758 10.7227 4.51758 14.4141C4.51758 17.4375 5.2207 19.8926 6.62695 21.7793C8.04492 23.6543 10.1543 24.5918 12.9551 24.5918C15.5332 24.5918 17.4961 23.6016 18.8438 21.6211C19.5586 20.5781 20.0918 19.207 20.4434 17.5078H23.8535C23.5488 20.2266 22.541 22.5059 20.8301 24.3457C18.7793 26.5605 16.0137 27.668 12.5332 27.668C9.5332 27.668 7.01367 26.7598 4.97461 24.9434C2.29102 22.541 0.949219 18.832 0.949219 13.8164C0.949219 10.0078 1.95703 6.88477 3.97266 4.44727C6.15234 1.79883 9.1582 0.474609 12.9902 0.474609ZM30.1289 21.9902C30.1289 22.9043 30.4629 23.625 31.1309 24.1523C31.7988 24.6797 32.5898 24.9434 33.5039 24.9434C34.6172 24.9434 35.6953 24.6855 36.7383 24.1699C38.4961 23.3145 39.375 21.9141 39.375 19.9688V17.4199C38.9883 17.666 38.4902 17.8711 37.8809 18.0352C37.2715 18.1992 36.6738 18.3164 36.0879 18.3867L34.1719 18.6328C33.0234 18.7852 32.1621 19.0254 31.5879 19.3535C30.6152 19.9043 30.1289 20.7832 30.1289 21.9902ZM37.793 15.5918C38.5195 15.498 39.0059 15.1934 39.252 14.6777C39.3926 14.3965 39.4629 13.9922 39.4629 13.4648C39.4629 12.3867 39.0762 11.6074 38.3027 11.127C37.541 10.6348 36.4453 10.3887 35.0156 10.3887C33.3633 10.3887 32.1914 10.834 31.5 11.7246C31.1133 12.2168 30.8613 12.9492 30.7441 13.9219H27.791C27.8496 11.6016 28.5996 9.99023 30.041 9.08789C31.4941 8.17383 33.1758 7.7168 35.0859 7.7168C37.3008 7.7168 39.0996 8.13867 40.4824 8.98242C41.8535 9.82617 42.5391 11.1387 42.5391 12.9199V23.7656C42.5391 24.0938 42.6035 24.3574 42.7324 24.5566C42.873 24.7559 43.1602 24.8555 43.5938 24.8555C43.7344 24.8555 43.8926 24.8496 44.0684 24.8379C44.2441 24.8145 44.4316 24.7852 44.6309 24.75V27.0879C44.1387 27.2285 43.7637 27.3164 43.5059 27.3516C43.248 27.3867 42.8965 27.4043 42.4512 27.4043C41.3613 27.4043 40.5703 27.0176 40.0781 26.2441C39.8203 25.834 39.6387 25.2539 39.5332 24.5039C38.8887 25.3477 37.9629 26.0801 36.7559 26.7012C35.5488 27.3223 34.2188 27.6328 32.7656 27.6328C31.0195 27.6328 29.5898 27.1055 28.4766 26.0508C27.375 24.9844 26.8242 23.6543 26.8242 22.0605C26.8242 20.3145 27.3691 18.9609 28.459 18C29.5488 17.0391 30.9785 16.4473 32.748 16.2246L37.793 15.5918ZM55.6875 24.873C57.1641 24.873 58.3887 24.2578 59.3613 23.0273C60.3457 21.7852 60.8379 19.9336 60.8379 17.4727C60.8379 15.9727 60.6211 14.6836 60.1875 13.6055C59.3672 11.5312 57.8672 10.4941 55.6875 10.4941C53.4961 10.4941 51.9961 11.5898 51.1875 13.7812C50.7539 14.9531 50.5371 16.4414 50.5371 18.2461C50.5371 19.6992 50.7539 20.9355 51.1875 21.9551C52.0078 23.9004 53.5078 24.873 55.6875 24.873ZM47.4961 8.26172H50.5723V10.7578C51.2051 9.90234 51.8965 9.24023 52.6465 8.77148C53.7129 8.06836 54.9668 7.7168 56.4082 7.7168C58.541 7.7168 60.3516 8.53711 61.8398 10.1777C63.3281 11.8066 64.0723 14.1387 64.0723 17.1738C64.0723 21.2754 63 24.2051 60.8555 25.9629C59.4961 27.0762 57.9141 27.6328 56.1094 27.6328C54.6914 27.6328 53.502 27.3223 52.541 26.7012C51.9785 26.3496 51.3516 25.7461 50.6602 24.8906V34.5059H47.4961V8.26172ZM68.4141 2.91797H71.6133V8.17383H74.6191V10.7578H71.6133V23.0449C71.6133 23.7012 71.8359 24.1406 72.2812 24.3633C72.5273 24.4922 72.9375 24.5566 73.5117 24.5566C73.6641 24.5566 73.8281 24.5566 74.0039 24.5566C74.1797 24.5449 74.3848 24.5273 74.6191 24.5039V27C74.2559 27.1055 73.875 27.1816 73.4766 27.2285C73.0898 27.2754 72.668 27.2988 72.2109 27.2988C70.7344 27.2988 69.7324 26.9238 69.2051 26.1738C68.6777 25.4121 68.4141 24.4277 68.4141 23.2207V10.7578H65.8652V8.17383H68.4141V2.91797ZM85.6406 7.75195C86.9766 7.75195 88.2715 8.06836 89.5254 8.70117C90.7793 9.32227 91.7344 10.1309 92.3906 11.127C93.0234 12.0762 93.4453 13.1836 93.6562 14.4492C93.8438 15.3164 93.9375 16.6992 93.9375 18.5977H80.1387C80.1973 20.5078 80.6484 22.043 81.4922 23.2031C82.3359 24.3516 83.6426 24.9258 85.4121 24.9258C87.0645 24.9258 88.3828 24.3809 89.3672 23.291C89.9297 22.6582 90.3281 21.9258 90.5625 21.0938H93.6738C93.5918 21.7852 93.3164 22.5586 92.8477 23.4141C92.3906 24.2578 91.875 24.9492 91.3008 25.4883C90.3398 26.4258 89.1504 27.0586 87.7324 27.3867C86.9707 27.5742 86.1094 27.668 85.1484 27.668C82.8047 27.668 80.8184 26.8184 79.1895 25.1191C77.5605 23.4082 76.7461 21.0176 76.7461 17.9473C76.7461 14.9238 77.5664 12.4688 79.207 10.582C80.8477 8.69531 82.9922 7.75195 85.6406 7.75195ZM90.6855 16.084C90.5566 14.7129 90.2578 13.6172 89.7891 12.7969C88.9219 11.2734 87.4746 10.5117 85.4473 10.5117C83.9941 10.5117 82.7754 11.0391 81.791 12.0938C80.8066 13.1367 80.2852 14.4668 80.2266 16.084H90.6855ZM97.8398 8.17383H100.846V10.8457C101.736 9.74414 102.68 8.95312 103.676 8.47266C104.672 7.99219 105.779 7.75195 106.998 7.75195C109.67 7.75195 111.475 8.68359 112.412 10.5469C112.928 11.5664 113.186 13.0254 113.186 14.9238V27H109.969V15.1348C109.969 13.9863 109.799 13.0605 109.459 12.3574C108.896 11.1855 107.877 10.5996 106.4 10.5996C105.65 10.5996 105.035 10.6758 104.555 10.8281C103.688 11.0859 102.926 11.6016 102.27 12.375C101.742 12.9961 101.396 13.6406 101.232 14.3086C101.08 14.9648 101.004 15.9082 101.004 17.1387V27H97.8398V8.17383ZM138.234 24.0117C139.418 24.0117 140.391 23.8887 141.152 23.6426C142.512 23.1855 143.625 22.3066 144.492 21.0059C145.184 19.9629 145.682 18.627 145.986 16.998C146.162 16.0254 146.25 15.123 146.25 14.291C146.25 11.0918 145.611 8.60742 144.334 6.83789C143.068 5.06836 141.023 4.18359 138.199 4.18359H131.994V24.0117H138.234ZM128.479 1.17773H138.938C142.488 1.17773 145.242 2.4375 147.199 4.95703C148.945 7.23047 149.818 10.1426 149.818 13.6934C149.818 16.4355 149.303 18.9141 148.271 21.1289C146.455 25.043 143.332 27 138.902 27H128.479V1.17773ZM161.385 24.9609C163.482 24.9609 164.918 24.1699 165.691 22.5879C166.477 20.9941 166.869 19.2246 166.869 17.2793C166.869 15.5215 166.588 14.0918 166.025 12.9902C165.135 11.2559 163.6 10.3887 161.42 10.3887C159.486 10.3887 158.08 11.127 157.201 12.6035C156.322 14.0801 155.883 15.8613 155.883 17.9473C155.883 19.9512 156.322 21.6211 157.201 22.957C158.08 24.293 159.475 24.9609 161.385 24.9609ZM161.508 7.62891C163.934 7.62891 165.984 8.4375 167.66 10.0547C169.336 11.6719 170.174 14.0508 170.174 17.1914C170.174 20.2266 169.436 22.7344 167.959 24.7148C166.482 26.6953 164.191 27.6855 161.086 27.6855C158.496 27.6855 156.439 26.8125 154.916 25.0664C153.393 23.3086 152.631 20.9531 152.631 18C152.631 14.8359 153.434 12.3164 155.039 10.4414C156.645 8.56641 158.801 7.62891 161.508 7.62891ZM181.213 7.62891C183.334 7.62891 185.057 8.14453 186.381 9.17578C187.717 10.207 188.52 11.9824 188.789 14.502H185.713C185.525 13.3418 185.098 12.3809 184.43 11.6191C183.762 10.8457 182.689 10.459 181.213 10.459C179.197 10.459 177.756 11.4434 176.889 13.4121C176.326 14.6895 176.045 16.2656 176.045 18.1406C176.045 20.0273 176.443 21.6152 177.24 22.9043C178.037 24.1934 179.291 24.8379 181.002 24.8379C182.314 24.8379 183.352 24.4395 184.113 23.6426C184.887 22.834 185.42 21.7324 185.713 20.3379H188.789C188.438 22.834 187.559 24.6621 186.152 25.8223C184.746 26.9707 182.947 27.5449 180.756 27.5449C178.295 27.5449 176.332 26.6484 174.867 24.8555C173.402 23.0508 172.67 20.8008 172.67 18.1055C172.67 14.8008 173.473 12.2285 175.078 10.3887C176.684 8.54883 178.729 7.62891 181.213 7.62891ZM193.834 21.0938C193.928 22.1484 194.191 22.957 194.625 23.5195C195.422 24.5391 196.805 25.0488 198.773 25.0488C199.945 25.0488 200.977 24.7969 201.867 24.293C202.758 23.7773 203.203 22.9863 203.203 21.9199C203.203 21.1113 202.846 20.4961 202.131 20.0742C201.674 19.8164 200.771 19.5176 199.424 19.1777L196.91 18.5449C195.305 18.1465 194.121 17.7012 193.359 17.209C192 16.3535 191.32 15.1699 191.32 13.6582C191.32 11.877 191.959 10.4355 193.236 9.33398C194.525 8.23242 196.254 7.68164 198.422 7.68164C201.258 7.68164 203.303 8.51367 204.557 10.1777C205.342 11.2324 205.723 12.3691 205.699 13.5879H202.711C202.652 12.873 202.4 12.2227 201.955 11.6367C201.229 10.8047 199.969 10.3887 198.176 10.3887C196.98 10.3887 196.072 10.6172 195.451 11.0742C194.842 11.5312 194.537 12.1348 194.537 12.8848C194.537 13.7051 194.941 14.3613 195.75 14.8535C196.219 15.1465 196.91 15.4043 197.824 15.627L199.916 16.1367C202.189 16.6875 203.713 17.2207 204.486 17.7363C205.717 18.5449 206.332 19.8164 206.332 21.5508C206.332 23.2266 205.693 24.6738 204.416 25.8926C203.15 27.1113 201.217 27.7207 198.615 27.7207C195.814 27.7207 193.828 27.0879 192.656 25.8223C191.496 24.5449 190.875 22.9688 190.793 21.0938H193.834Z" fill="black"/>
</svg>
